HIERARCHY
ROOT Hips
{
	OFFSET 0.000000 83.214638 0.000000
	CHANNELS 6 Xposition Yposition Zposition Xrotation Yrotation Zrotation
	JOINT Pelvis
	{
		OFFSET 0.000000 0.000000 0.000000
		CHANNELS 3 Xrotation Yrotation Zrotation
		JOINT LeftUpLeg
		{
			OFFSET 8.479700 -4.795502 -0.379100
			CHANNELS 3 Xrotation Yrotation Zrotation
			JOINT LeftLeg
			{
				OFFSET 0.024144 -32.555107 0.112900
				CHANNELS 3 Xrotation Yrotation Zrotation
				JOINT LeftFoot
				{
					OFFSET -0.024144 -32.638630 -3.012600
					CHANNELS 3 Xrotation Yrotation Zrotation
					JOINT LeftToeBase
					{
						OFFSET 0.970200 -13.225400 11.864200
						CHANNELS 3 Xrotation Yrotation Zrotation
						End Site
						{
							OFFSET 0.000000 12.319262 0.000000
						}
					}
					JOINT LFootTongue
					{
						OFFSET 1.142400 -1.059800 6.665200
						CHANNELS 3 Xrotation Yrotation Zrotation
						End Site
						{
							OFFSET 0.000000 12.319262 0.000000
						}
					}
				}
				JOINT LeftPantLeg
				{
					OFFSET 0.918482 -16.533964 -2.284700
					CHANNELS 3 Xrotation Yrotation Zrotation
					End Site
					{
						OFFSET 0.350399 24.744368 0.000000
					}
				}
			}
		}
		JOINT RightUpLeg
		{
			OFFSET -8.479700 -4.795502 -0.379100
			CHANNELS 3 Xrotation Yrotation Zrotation
			JOINT RightLeg
			{
				OFFSET -0.023144 -32.555092 0.112900
				CHANNELS 3 Xrotation Yrotation Zrotation
				JOINT RightFoot
				{
					OFFSET 0.023144 -32.638641 -3.012700
					CHANNELS 3 Xrotation Yrotation Zrotation
					JOINT RightToeBase
					{
						OFFSET -0.970200 -13.225400 11.864200
						CHANNELS 3 Xrotation Yrotation Zrotation
						End Site
						{
							OFFSET 0.000000 12.319244 0.000000
						}
					}
					JOINT RFootTongue
					{
						OFFSET -1.142200 -1.059800 6.665200
						CHANNELS 3 Xrotation Yrotation Zrotation
						End Site
						{
							OFFSET 0.000000 12.319243 0.000000
						}
					}
				}
				JOINT RightPantLeg
				{
					OFFSET -0.919482 -16.533978 -2.284800
					CHANNELS 3 Xrotation Yrotation Zrotation
					End Site
					{
						OFFSET -0.350400 24.744419 0.000000
					}
				}
			}
		}
	}
	JOINT Spine
	{
		OFFSET 0.000000 7.722000 1.166200
		CHANNELS 3 Xrotation Yrotation Zrotation
		JOINT Spine1
		{
			OFFSET 0.000000 12.024101 0.248800
			CHANNELS 3 Xrotation Yrotation Zrotation
			JOINT Spine2
			{
				OFFSET 0.000000 11.502998 -0.491200
				CHANNELS 3 Xrotation Yrotation Zrotation
				JOINT Neck
				{
					OFFSET 0.000000 18.430702 -3.123100
					CHANNELS 3 Xrotation Yrotation Zrotation
					JOINT Head
					{
						OFFSET 0.000000 9.051102 1.034000
						CHANNELS 3 Xrotation Yrotation Zrotation
						JOINT HairB
						{
							OFFSET 0.208400 24.786102 24.822300
							CHANNELS 3 Xrotation Yrotation Zrotation
							End Site
							{
								OFFSET 0.000000 32.263779 0.000000
							}
						}
						JOINT HairA
						{
							OFFSET -7.081100 24.428299 23.196600
							CHANNELS 3 Xrotation Yrotation Zrotation
							End Site
							{
								OFFSET 0.000000 32.263779 0.000000
							}
						}
						JOINT Hat
						{
							OFFSET 16.728800 15.048294 -15.439601
							CHANNELS 3 Xrotation Yrotation Zrotation
							End Site
							{
								OFFSET 0.000000 32.263779 0.000000
							}
						}
					}
				}
				JOINT LeftShoulder
				{
					OFFSET 6.197800 13.665199 -4.064700
					CHANNELS 3 Xrotation Yrotation Zrotation
					JOINT LeftArm
					{
						OFFSET 7.778100 -0.187103 -1.709300
						CHANNELS 3 Xrotation Yrotation Zrotation
						JOINT LeftForeArm
						{
							OFFSET 22.049376 0.000000 0.000000
							CHANNELS 3 Xrotation Yrotation Zrotation
							JOINT LeftHand
							{
								OFFSET 23.009392 0.000000 0.000000
								CHANNELS 3 Xrotation Yrotation Zrotation
								JOINT LeftHandThumb1
								{
									OFFSET 3.507191 -2.063065 3.133727
									CHANNELS 3 Xrotation Yrotation Zrotation
									JOINT LeftHandThumb2
									{
										OFFSET 3.101337 -1.790558 1.790558
										CHANNELS 3 Xrotation Yrotation Zrotation
										JOINT LeftHandThumb3
										{
											OFFSET 3.058640 -1.765907 1.765906
											CHANNELS 3 Xrotation Yrotation Zrotation
											End Site
											{
												OFFSET -0.415260 3.926476 -0.049563
											}
										}
									}
								}
								JOINT LeftHandIndex1
								{
									OFFSET 11.334419 -0.901459 3.706815
									CHANNELS 3 Xrotation Yrotation Zrotation
									JOINT LeftHandIndex2
									{
										OFFSET 3.283112 0.000000 0.000000
										CHANNELS 3 Xrotation Yrotation Zrotation
										JOINT LeftHandIndex3
										{
											OFFSET 3.323853 0.000000 0.000000
											CHANNELS 3 Xrotation Yrotation Zrotation
											End Site
											{
												OFFSET -1.135597 3.097809 0.402452
											}
										}
									}
								}
								JOINT LeftHandMiddle1
								{
									OFFSET 11.335861 0.000000 0.000000
									CHANNELS 3 Xrotation Yrotation Zrotation
									JOINT LeftHandMiddle2
									{
										OFFSET 3.410492 0.000000 0.000000
										CHANNELS 3 Xrotation Yrotation Zrotation
										JOINT LeftHandMiddle3
										{
											OFFSET 3.312172 0.000000 0.000000
											CHANNELS 3 Xrotation Yrotation Zrotation
											End Site
											{
												OFFSET -1.150200 3.080154 0.400270
											}
										}
									}
								}
								JOINT LeftHandRing1
								{
									OFFSET 11.514786 -0.013176 -3.003090
									CHANNELS 3 Xrotation Yrotation Zrotation
									JOINT LeftHandRing2
									{
										OFFSET 3.053307 0.000000 0.000000
										CHANNELS 3 Xrotation Yrotation Zrotation
										JOINT LeftHandRing3
										{
											OFFSET 3.295807 0.000000 0.000000
											CHANNELS 3 Xrotation Yrotation Zrotation
											End Site
											{
												OFFSET -1.281006 3.013344 0.375733
											}
										}
									}
								}
								JOINT LeftHandPinky1
								{
									OFFSET 10.518692 -0.960396 -5.730441
									CHANNELS 3 Xrotation Yrotation Zrotation
									JOINT LeftHandPinky2
									{
										OFFSET 2.861649 0.000000 0.000000
										CHANNELS 3 Xrotation Yrotation Zrotation
										JOINT LeftHandPinky3
										{
											OFFSET 2.863380 0.000000 0.000000
											CHANNELS 3 Xrotation Yrotation Zrotation
											End Site
											{
												OFFSET -0.843597 2.711159 0.369971
											}
										}
									}
								}
							}
							JOINT LSleeve
							{
								OFFSET 6.676277 -0.344902 -1.011730
								CHANNELS 3 Xrotation Yrotation Zrotation
								End Site
								{
									OFFSET 0.000000 14.885353 0.000000
								}
							}
						}
					}
				}
				JOINT RightShoulder
				{
					OFFSET -6.197800 13.665199 -4.064700
					CHANNELS 3 Xrotation Yrotation Zrotation
					JOINT RightArm
					{
						OFFSET -7.778100 -0.187103 -1.709300
						CHANNELS 3 Xrotation Yrotation Zrotation
						JOINT RightForeArm
						{
							OFFSET -22.049376 0.000000 0.000000
							CHANNELS 3 Xrotation Yrotation Zrotation
							JOINT RightHand
							{
								OFFSET -23.009392 0.000000 0.000000
								CHANNELS 3 Xrotation Yrotation Zrotation
								JOINT RightHandThumb1
								{
									OFFSET -3.507191 -2.063065 3.133727
									CHANNELS 3 Xrotation Yrotation Zrotation
									JOINT RightHandThumb2
									{
										OFFSET -3.101337 -1.790558 1.790558
										CHANNELS 3 Xrotation Yrotation Zrotation
										JOINT RightHandThumb3
										{
											OFFSET -3.058640 -1.765907 1.765906
											CHANNELS 3 Xrotation Yrotation Zrotation
											End Site
											{
												OFFSET 0.415260 3.926476 -0.049563
											}
										}
									}
								}
								JOINT RightHandIndex1
								{
									OFFSET -11.334419 -0.901459 3.706815
									CHANNELS 3 Xrotation Yrotation Zrotation
									JOINT RightHandIndex2
									{
										OFFSET -3.283112 0.000000 0.000000
										CHANNELS 3 Xrotation Yrotation Zrotation
										JOINT RightHandIndex3
										{
											OFFSET -3.323853 0.000000 0.000000
											CHANNELS 3 Xrotation Yrotation Zrotation
											End Site
											{
												OFFSET 1.135597 3.097809 0.402452
											}
										}
									}
								}
								JOINT RightHandMiddle1
								{
									OFFSET -11.335861 0.000000 0.000000
									CHANNELS 3 Xrotation Yrotation Zrotation
									JOINT RightHandMiddle2
									{
										OFFSET -3.410492 0.000000 0.000000
										CHANNELS 3 Xrotation Yrotation Zrotation
										JOINT RightHandMiddle3
										{
											OFFSET -3.312172 0.000000 0.000000
											CHANNELS 3 Xrotation Yrotation Zrotation
											End Site
											{
												OFFSET 1.150200 3.080154 0.400270
											}
										}
									}
								}
								JOINT RightHandRing1
								{
									OFFSET -11.514786 -0.013176 -3.003090
									CHANNELS 3 Xrotation Yrotation Zrotation
									JOINT RightHandRing2
									{
										OFFSET -3.053307 0.000000 0.000000
										CHANNELS 3 Xrotation Yrotation Zrotation
										JOINT RightHandRing3
										{
											OFFSET -3.295807 0.000000 0.000000
											CHANNELS 3 Xrotation Yrotation Zrotation
											End Site
											{
												OFFSET 1.281006 3.013344 0.375733
											}
										}
									}
								}
								JOINT RightHandPinky1
								{
									OFFSET -10.518692 -0.960396 -5.730441
									CHANNELS 3 Xrotation Yrotation Zrotation
									JOINT RightHandPinky2
									{
										OFFSET -2.861649 0.000000 0.000000
										CHANNELS 3 Xrotation Yrotation Zrotation
										JOINT RightHandPinky3
										{
											OFFSET -2.863380 0.000000 0.000000
											CHANNELS 3 Xrotation Yrotation Zrotation
											End Site
											{
												OFFSET 0.843597 2.711159 0.369971
											}
										}
									}
								}
							}
							JOINT RSleeve
							{
								OFFSET -6.676277 -0.344902 -1.011730
								CHANNELS 3 Xrotation Yrotation Zrotation
								End Site
								{
									OFFSET 0.000000 14.885353 0.000000
								}
							}
						}
					}
				}
				JOINT Backpack
				{
					OFFSET 0.000000 -2.471497 36.677502
					CHANNELS 3 Xrotation Yrotation Zrotation
					End Site
					{
						OFFSET 0.000000 20.427315 0.000000
					}
				}
				JOINT Hood
				{
					OFFSET 0.000000 18.754097 -10.431000
					CHANNELS 3 Xrotation Yrotation Zrotation
					JOINT Hood1
					{
						OFFSET 0.000000 -5.011002 -7.685901
						CHANNELS 3 Xrotation Yrotation Zrotation
						End Site
						{
							OFFSET 0.000000 9.175140 0.000000
						}
					}
				}
				JOINT LHoodieString
				{
					OFFSET 5.250500 16.397697 3.089900
					CHANNELS 3 Xrotation Yrotation Zrotation
					JOINT LHoodieString1
					{
						OFFSET 0.257700 -6.364304 3.694600
						CHANNELS 3 Xrotation Yrotation Zrotation
						JOINT LHoodieString2
						{
							OFFSET 0.000000 -9.643799 2.679100
							CHANNELS 3 Xrotation Yrotation Zrotation
							End Site
							{
								OFFSET 0.000000 10.009018 0.000000
							}
						}
					}
				}
				JOINT RHoodieString
				{
					OFFSET -5.250500 16.397697 3.089900
					CHANNELS 3 Xrotation Yrotation Zrotation
					JOINT RHoodieString1
					{
						OFFSET -0.257700 -6.364304 3.694600
						CHANNELS 3 Xrotation Yrotation Zrotation
						JOINT RHoodieString2
						{
							OFFSET 0.000000 -9.643799 2.679100
							CHANNELS 3 Xrotation Yrotation Zrotation
							End Site
							{
								OFFSET 0.000000 10.009018 0.000000
							}
						}
					}
				}
			}
			JOINT LBackpack_Strap
			{
				OFFSET 15.223200 -7.719803 -6.610900
				CHANNELS 3 Xrotation Yrotation Zrotation
				End Site
				{
					OFFSET 0.000000 16.040596 0.000000
				}
			}
			JOINT RBackpack_Strap
			{
				OFFSET -15.223000 -7.719803 -6.610900
				CHANNELS 3 Xrotation Yrotation Zrotation
				End Site
				{
					OFFSET 0.000000 16.040596 0.000000
				}
			}
		}
	}
	JOINT BoyFacialAnim_Joint
	{
		OFFSET 1.000000 -82.208099 -1.550900
		CHANNELS 3 Xrotation Yrotation Zrotation
		End Site
		{
			OFFSET 0.000000 30.012791 0.000000
		}
	}
}
MOTION
Frames: 4
Frame Time: 0.033333
-1.509634 79.995415 106.454025 -2.654033 2.645726 -1.716974 -0.000000 0.000000 -0.000000 -31.626221 2.107500 7.143586 58.142026 -0.114271 -1.347853 5.385593 4.459704 -2.475637 0.000001 -0.000000 0.000001 0.000001 -0.000000 0.000001 -0.000001 -0.000002 0.000000 -7.997123 -6.131988 3.394369 30.083124 -0.530185 0.890651 -18.994934 0.014970 -2.940021 -0.000000 0.000000 0.000000 -0.000000 0.000000 0.000000 0.000000 0.000000 -0.000000 2.468011 1.137601 1.417579 4.950098 2.317988 1.412752 4.950097 2.317989 1.412752 -11.856839 -0.855897 -0.420748 6.454709 -5.938093 -1.020288 -0.000000 0.000000 -0.000000 -0.000000 0.000000 -0.000000 -0.000000 0.000000 -0.000000 2.883966 -3.845429 -7.400476 11.169888 -22.719026 -61.027276 -3.422652 -29.843159 0.007558 -21.185582 0.898830 4.605644 -3.393794 6.806110 9.828401 2.607172 6.629798 1.555728 -0.000000 -0.000000 -0.000001 -0.002032 -0.688080 -14.370447 0.030830 0.708242 -12.866651 -0.000001 -0.000001 -0.000002 -0.167712 0.432649 -14.699841 -0.168777 -0.694386 -14.841897 0.000002 -0.000001 -0.000002 -5.511399 2.233064 -15.484549 -1.487745 -4.037595 -46.034201 -0.000002 -0.000001 -0.000000 -3.020266 4.194261 -21.958322 -2.889988 -8.342801 -55.220222 -0.000003 -0.000002 -0.000001 0.000002 -0.000002 0.000001 4.761996 2.360000 5.892248 0.978251 16.262476 63.467347 -1.101017 24.611921 0.001028 -18.186063 -0.892684 -6.891696 -5.481716 -3.709466 -3.794179 2.717111 -7.521266 -2.198766 -0.000001 -0.000000 -0.000002 -1.062141 -1.906056 17.716614 0.092296 -1.011804 13.970460 0.000001 -0.000000 0.000002 -1.226382 -1.331281 30.706550 -12.654984 -0.861922 1.176728 0.000000 -0.000000 0.000003 -0.890513 -2.343409 32.893450 0.013181 0.623839 1.317347 0.000001 0.000001 0.000002 -0.756141 -4.557743 39.237005 -1.971672 6.087811 18.652017 -0.000002 -0.000001 -0.000003 -0.000001 -0.000001 0.000001 -0.000000 0.000001 -0.000000 -0.000000 0.000001 -0.000000 -0.000000 0.000001 -0.000000 -0.000000 0.000001 -0.000000 -0.000000 0.000001 -0.000000 -0.000000 0.000000 0.000000 -0.000000 0.000001 -0.000000 -0.000000 0.000001 -0.000000 -0.000000 0.000000 0.000000 0.000000 -0.000000 -0.000000 0.000000 -0.000000 -0.000000 -0.000000 0.000000 -0.000000 
-1.528008 80.277061 108.476639 -2.474443 1.798843 -1.096897 0.000000 0.000000 0.000000 -32.424284 2.619898 5.650585 50.670554 -0.085892 -1.096629 2.762398 7.542910 -2.608408 -0.000000 -0.000001 0.000000 -0.000000 -0.000001 0.000001 0.000001 0.000001 -0.000000 -5.379552 -6.295190 2.748286 27.759349 -0.459146 0.820091 -19.100592 1.101189 -2.882412 0.000000 0.000000 -0.000000 0.000000 0.000000 -0.000000 0.000001 0.000001 -0.000000 2.448783 1.461024 0.993890 4.911828 2.900511 0.950419 4.911825 2.900510 0.950418 -11.620484 -0.903537 -0.587813 6.723157 -6.549485 -0.743693 -0.000000 -0.000000 0.000000 -0.000000 -0.000000 0.000000 -0.000000 -0.000000 0.000000 2.915550 -3.333666 -7.494668 14.161773 -20.856244 -60.540802 -3.429264 -30.449099 0.005678 -22.989466 1.386934 3.415036 -3.533778 6.577800 9.564674 2.607172 6.629795 1.555727 -0.000001 0.000000 0.000004 0.000554 -0.679435 -14.916826 0.033737 0.716830 -13.413108 -0.000001 0.000003 0.000002 -0.179256 0.389474 -15.244410 -0.180384 -0.737419 -15.386739 0.000001 -0.000001 0.000000 -5.521608 2.194159 -16.029255 -1.521363 -4.069629 -46.581036 0.000001 0.000003 0.000000 -3.043000 4.143111 -22.500052 -2.943071 -8.378342 -55.770708 -0.000002 0.000003 0.000002 -0.000001 0.000001 -0.000000 4.666389 3.001160 5.913308 1.027315 16.700219 62.513614 -1.102051 26.961499 0.000976 -19.858592 0.347819 -7.439799 -5.481715 -3.709465 -3.794179 2.717112 -7.521266 -2.198763 -0.000001 0.000000 0.000003 -1.043710 -1.958602 19.187202 0.108731 -1.065105 15.440753 -0.000002 0.000001 0.000000 -1.274004 -1.253425 32.173637 -13.070988 -1.121017 2.660358 0.000001 0.000001 0.000002 -0.931605 -2.282926 33.589207 0.010673 0.699099 2.014688 0.000000 0.000000 0.000004 -0.731364 -4.587097 39.010175 -1.958806 6.050329 18.421990 -0.000001 -0.000003 0.000001 0.000001 0.000000 0.000001 0.000000 -0.000000 0.000000 0.000000 -0.000000 0.000000 0.000000 -0.000000 0.000000 0.000000 -0.000000 0.000000 0.000000 -0.000000 -0.000000 0.000000 -0.000000 -0.000000 0.000000 -0.000000 0.000000 0.000000 -0.000000 -0.000000 0.000000 -0.000000 -0.000000 0.000000 0.000000 -0.000000 0.000000 0.000000 -0.000000 0.000000 0.000000 0.000000 
-1.507255 80.437981 110.452110 -2.138165 1.098209 -0.697340 -0.000000 0.000000 -0.000000 -32.440001 2.845114 4.283859 41.227551 0.003307 -0.754351 1.624124 9.295942 -1.951309 0.000000 0.000001 -0.000000 0.000000 0.000001 -0.000000 -0.000000 -0.000000 -0.000000 -2.985679 -6.410446 2.314894 25.481583 -0.338993 0.759183 -19.212805 1.857942 -2.795625 0.000000 0.000000 -0.000000 0.000000 0.000000 -0.000000 0.000001 -0.000001 -0.000000 2.415220 1.714670 0.630857 4.842433 3.377768 0.572488 4.842437 3.377770 0.572487 -11.551844 -0.967232 -0.714488 6.741958 -7.004156 -0.574076 0.000000 -0.000000 -0.000000 0.000000 -0.000000 -0.000000 0.000000 -0.000000 -0.000000 2.931430 -2.963057 -7.591504 16.862402 -19.293529 -60.375184 -3.437415 -30.269838 0.005800 -23.848123 1.018956 2.397085 -3.719321 6.292681 9.154976 2.607173 6.629796 1.555727 0.000000 0.000000 0.000000 0.004959 -0.665356 -15.811372 0.038673 0.730843 -14.307797 -0.000001 -0.000000 0.000002 -0.199053 0.319040 -16.136008 -0.200255 -0.807640 -16.278762 0.000001 -0.000001 0.000000 -5.540088 2.129637 -16.920812 -1.577048 -4.121338 -47.476556 0.000002 0.000001 -0.000004 -3.081670 4.058464 -23.386774 -3.030747 -8.435404 -56.672265 0.000001 -0.000001 -0.000000 0.000000 -0.000001 0.000000 4.578849 3.588444 5.920584 1.115459 17.138060 61.571621 -1.102993 29.232387 0.000219 -21.085243 1.595445 -8.290444 -5.481722 -3.709466 -3.794179 2.717111 -7.521264 -2.198761 -0.000001 -0.000001 0.000001 -1.021069 -2.017865 20.862837 0.129110 -1.125288 17.115973 -0.000001 -0.000000 0.000002 -1.330667 -1.166212 33.845254 -13.535741 -1.444338 4.323574 0.000000 -0.000000 0.000001 -1.000544 -2.184745 34.725785 0.005050 0.822046 3.153794 0.000000 -0.000002 0.000002 -0.750391 -4.564688 39.184683 -1.968688 6.079168 18.598965 -0.000001 -0.000002 -0.000000 0.000000 0.000000 -0.000001 0.000001 0.000000 0.000000 0.000001 0.000000 0.000000 0.000001 0.000000 0.000000 0.000001 0.000000 0.000000 0.000001 0.000000 -0.000000 -0.000000 -0.000001 0.000000 0.000001 0.000000 0.000000 0.000001 0.000000 -0.000000 -0.000000 -0.000001 0.000000 0.000000 -0.000000 -0.000000 0.000000 -0.000000 -0.000000 -0.000000 0.000000 -0.000000 
-1.470828 80.556679 112.387802 -1.720471 0.520500 -0.638938 0.000000 -0.000000 0.000000 -31.726820 2.718823 3.414553 30.257236 0.073454 -0.325238 1.257821 9.162537 -1.753223 -0.000000 0.000001 -0.000000 -0.000000 0.000001 -0.000000 -0.000000 -0.000000 0.000000 -0.501462 -6.265990 2.345631 22.783880 -0.279884 0.674510 -19.019954 2.202924 -2.780034 -0.000000 0.000000 0.000000 -0.000000 0.000000 0.000000 -0.000002 0.000000 -0.000000 2.360867 1.900629 0.364568 4.729035 3.755686 0.338746 4.729033 3.755686 0.338747 -11.621854 -1.034056 -0.759438 6.445454 -7.288036 -0.532729 0.000000 0.000000 -0.000000 0.000000 0.000000 -0.000000 0.000000 0.000000 -0.000000 2.936205 -2.683540 -7.691552 18.630705 -18.243162 -60.771793 -3.447655 -29.001431 0.008540 -23.745831 -0.130745 1.930957 -3.997263 5.863833 8.659414 2.607174 6.629795 1.555729 -0.000001 -0.000001 0.000000 0.011012 -0.647184 -16.972151 0.045401 0.748886 -15.468686 0.000001 -0.000000 -0.000002 -0.226350 0.228113 -17.293004 -0.227693 -0.898285 -17.436302 0.000000 -0.000001 -0.000000 -5.566737 2.044117 -18.077426 -1.650540 -4.187131 -48.638744 0.000002 0.000001 -0.000000 -3.134545 3.946715 -24.537122 -3.145859 -8.507433 -57.842359 0.000002 -0.000004 0.000001 -0.000001 0.000000 0.000001 4.497642 4.141907 5.869799 1.255093 17.472305 60.632826 -1.103367 31.358601 -0.001995 -21.539265 2.968331 -9.015153 -5.481718 -3.709466 -3.794182 2.717111 -7.521271 -2.198761 -0.000001 0.000001 0.000002 -0.995358 -2.079539 22.627491 0.152478 -1.187993 18.880229 -0.000001 0.000002 0.000000 -1.393062 -1.076214 35.605677 -14.013310 -1.814451 6.069785 -0.000000 -0.000002 -0.000000 -1.092494 -2.058963 36.182148 -0.005653 0.979459 4.613636 -0.000001 0.000003 0.000001 -0.825053 -4.478515 39.864611 -2.008004 6.191201 19.288359 -0.000001 -0.000001 0.000000 0.000000 -0.000001 0.000000 0.000002 0.000001 -0.000000 0.000002 0.000001 -0.000000 0.000002 0.000001 -0.000000 0.000002 0.000001 -0.000000 0.000002 0.000001 -0.000000 0.000001 0.000001 0.000000 0.000002 0.000001 -0.000000 0.000002 0.000001 -0.000000 0.000001 0.000001 0.000000 -0.000000 0.000000 -0.000000 -0.000000 0.000000 -0.000000 0.000000 -0.000000 0.000000 
